<svg xmlns="http://www.w3.org/2000/svg" width="15.0" height="15.0" viewBox="0.0 0.0 15.0 15.0" fill="none">
<path d="M7.13745 14.075L6.73745 14.375L6.75877 14.4034L6.7839 14.4286L7.13745 14.075ZM7.0437 13.8875L6.55912 14.0107L6.5636 14.0284L6.56936 14.0456L7.0437 13.8875ZM6.16245 11.75L5.72832 11.9981L5.73028 12.0015L6.16245 11.75ZM4.77495 9.87501L5.13663 9.52977L5.13063 9.52349L5.12442 9.51742L4.77495 9.87501ZM2.89995 8.48751L2.64845 8.91978L2.65779 8.92496L2.89995 8.48751ZM0.743701 7.60626L0.558006 8.0705L0.589513 8.0831L0.622433 8.09133L0.743701 7.60626ZM0.574951 7.51251L0.221398 7.86607L0.246524 7.89119L0.274951 7.91251L0.574951 7.51251ZM0.574951 7.15626L0.874952 7.55626L0.903378 7.53494L0.928504 7.50982L0.574951 7.15626ZM0.743701 7.04376L0.622433 6.55869L0.589514 6.56692L0.558008 6.57952L0.743701 7.04376ZM2.89995 6.18126L3.14548 6.61688L3.1514 6.61344L2.89995 6.18126ZM4.77495 4.77501L5.12047 5.1366L5.1285 5.12856L4.77495 4.77501ZM6.16245 2.91876L5.72829 2.67067L5.72501 2.6766L6.16245 2.91876ZM7.0437 0.743762L6.57946 0.558068L6.56686 0.589574L6.55863 0.622494L7.0437 0.743762ZM7.13745 0.575011L6.7839 0.221458L6.75877 0.246584L6.73745 0.27501L7.13745 0.575011ZM7.4937 0.575011L7.0937 0.875012L7.11502 0.903439L7.14015 0.928565L7.4937 0.575011ZM7.6062 0.743762L8.09127 0.622494L8.08304 0.589575L8.07044 0.55807L7.6062 0.743762ZM8.4687 2.91876L8.03116 3.16098L8.03653 3.17021L8.4687 2.91876ZM9.87495 4.77501L9.51726 5.12457L9.52549 5.13261L9.87495 4.77501ZM11.7312 6.18126L11.4797 6.61353L11.489 6.61871L11.7312 6.18126ZM13.9062 7.04376L14.0919 6.57952L14.0604 6.56692L14.0275 6.55869L13.9062 7.04376ZM14.075 7.15626L13.7214 7.50982L13.7465 7.53494L13.775 7.55626L14.075 7.15626ZM14.075 7.51251L14.375 7.91251L14.4034 7.89119L14.4285 7.86607L14.075 7.51251ZM13.9062 7.60626L14.0275 8.09133L14.0604 8.0831L14.0919 8.0705L13.9062 7.60626ZM11.7312 8.48751L11.9734 8.925L11.9793 8.92163L11.7312 8.48751ZM9.87495 9.87501L9.52131 9.52137L9.51346 9.52958L9.87495 9.87501ZM8.4687 11.75L8.03649 11.4985L8.03313 11.5045L8.4687 11.75ZM7.6062 13.8875L8.08054 14.0456L8.0863 14.0284L8.09079 14.0107L7.6062 13.8875ZM7.4937 14.075L7.14015 13.7215L7.11502 13.7466L7.0937 13.775L7.4937 14.075ZM7.32495 14.15V13.65C7.34381 13.65 7.37333 13.6533 7.40752 13.667C7.4423 13.6809 7.47058 13.701 7.491 13.7215L7.13745 14.075L6.7839 14.4286C6.9338 14.5785 7.12627 14.65 7.32495 14.65V14.15ZM7.13745 14.075L7.53745 13.775C7.53944 13.7777 7.53034 13.7663 7.51804 13.7294L7.0437 13.8875L6.56936 14.0456C6.60706 14.1587 6.66047 14.2724 6.73745 14.375L7.13745 14.075ZM7.0437 13.8875L7.52829 13.7643C7.32884 12.9798 7.0169 12.2244 6.59463 11.4986L6.16245 11.75L5.73028 12.0015C6.108 12.6507 6.38356 13.3202 6.55912 14.0107L7.0437 13.8875ZM6.16245 11.75L6.59657 11.5019C6.17766 10.7689 5.69126 10.1108 5.13663 9.52977L4.77495 9.87501L4.41327 10.2203C4.90864 10.7392 5.34724 11.3312 5.72833 11.9981L6.16245 11.75ZM4.77495 9.87501L5.12442 9.51742C4.54111 8.94737 3.87971 8.45838 3.14211 8.05007L2.89995 8.48751L2.65779 8.92496C3.3202 9.29165 3.90879 9.72765 4.42549 10.2326L4.77495 9.87501ZM2.89995 8.48751L3.1514 8.05534C2.4244 7.63235 1.66195 7.32043 0.864969 7.12119L0.743701 7.60626L0.622433 8.09133C1.32546 8.26709 2.00051 8.54267 2.6485 8.91969L2.89995 8.48751ZM0.743701 7.60626L0.929397 7.14202C0.904534 7.13208 0.887245 7.12173 0.874951 7.11251L0.574951 7.51251L0.274951 7.91251C0.362658 7.97829 0.457869 8.03045 0.558006 8.0705L0.743701 7.60626ZM0.574951 7.51251L0.928504 7.15896C0.948925 7.17938 0.96903 7.20767 0.982939 7.24244C0.996615 7.27663 0.999951 7.30615 0.999951 7.32501H0.499951H-4.87566e-05C-4.87566e-05 7.52369 0.0715005 7.71617 0.221398 7.86607L0.574951 7.51251ZM0.499951 7.32501H0.999951C0.999951 7.34253 0.997017 7.38147 0.975607 7.42964C0.952909 7.48071 0.917101 7.52465 0.874952 7.55626L0.574951 7.15626L0.27495 6.75626C0.0732018 6.90757 -4.87566e-05 7.12802 -4.87566e-05 7.32501H0.499951ZM0.574951 7.15626L0.928504 7.50982C0.931287 7.50703 0.932485 7.50633 0.931988 7.50666C0.931437 7.50703 0.930422 7.50759 0.929394 7.508L0.743701 7.04376L0.558008 6.57952C0.429485 6.63093 0.316819 6.70729 0.221398 6.80271L0.574951 7.15626ZM0.743701 7.04376L0.864969 7.52883C1.65931 7.33025 2.41977 7.02586 3.14546 6.61684L2.89995 6.18126L2.65444 5.74569C2.00514 6.11166 1.32809 6.38228 0.622433 6.55869L0.743701 7.04376ZM2.89995 6.18126L3.1514 6.61344C3.87213 6.1941 4.52881 5.70178 5.12038 5.13651L4.77495 4.77501L4.42952 4.41352C3.89609 4.92324 3.30277 5.36842 2.64851 5.74909L2.89995 6.18126ZM4.77495 4.77501L5.1285 5.12856C5.70073 4.55634 6.19097 3.89964 6.5999 3.16092L6.16245 2.91876L5.72501 2.6766C5.35894 3.33789 4.92417 3.91868 4.4214 4.42146L4.77495 4.77501ZM6.16245 2.91876L6.59657 3.16683C7.0183 2.4288 7.32971 1.6613 7.52877 0.86503L7.0437 0.743762L6.55863 0.622494C6.3827 1.32622 6.1066 2.00872 5.72833 2.67069L6.16245 2.91876ZM7.0437 0.743762L7.50794 0.929456C7.51789 0.904593 7.52823 0.887305 7.53745 0.875012L7.13745 0.575011L6.73745 0.27501C6.67167 0.362718 6.61952 0.45793 6.57946 0.558068L7.0437 0.743762ZM7.13745 0.575011L7.491 0.928565C7.47058 0.948985 7.4423 0.96909 7.40752 0.982999C7.37333 0.996675 7.34381 1.00001 7.32495 1.00001V0.500011V1.12057e-05C7.12627 1.12057e-05 6.9338 0.0715605 6.7839 0.221458L7.13745 0.575011ZM7.32495 0.500011V1.00001C7.30743 1.00001 7.26849 0.997077 7.22032 0.975667C7.16925 0.952969 7.12531 0.917161 7.0937 0.875012L7.4937 0.575011L7.8937 0.27501C7.74239 0.0732617 7.52195 1.12057e-05 7.32495 1.12057e-05V0.500011ZM7.4937 0.575011L7.14015 0.928565C7.14293 0.931347 7.14363 0.932544 7.1433 0.932047C7.14293 0.931496 7.14237 0.930481 7.14196 0.929453L7.6062 0.743762L8.07044 0.55807C8.01903 0.429546 7.94268 0.316879 7.84725 0.221458L7.4937 0.575011ZM7.6062 0.743762L7.12113 0.86503C7.31954 1.65868 7.62343 2.4242 8.03126 3.16092L8.4687 2.91876L8.90615 2.6766C8.53897 2.01332 8.26786 1.32884 8.09127 0.622494L7.6062 0.743762ZM8.4687 2.91876L8.03653 3.17021C8.45654 3.89211 8.95008 4.54401 9.51736 5.12448L9.87495 4.77501L10.2325 4.42554C9.72482 3.90602 9.28086 3.32042 8.90088 2.66732L8.4687 2.91876ZM9.87495 4.77501L9.52549 5.13261C10.106 5.69988 10.7579 6.19342 11.4798 6.61344L11.7312 6.18126L11.9826 5.74909C11.3295 5.3691 10.7439 4.92514 10.2244 4.41742L9.87495 4.77501ZM11.7312 6.18126L11.489 6.61871C12.2258 7.02654 12.9913 7.33042 13.7849 7.52883L13.9062 7.04376L14.0275 6.55869C13.3211 6.3821 12.6366 6.11099 11.9734 5.74381L11.7312 6.18126ZM13.9062 7.04376L13.7205 7.508C13.7195 7.50759 13.7185 7.50703 13.7179 7.50666C13.7174 7.50633 13.7186 7.50703 13.7214 7.50982L14.075 7.15626L14.4285 6.80271C14.3331 6.70729 14.2204 6.63093 14.0919 6.57952L13.9062 7.04376ZM14.075 7.15626L13.775 7.55626C13.7328 7.52465 13.697 7.48071 13.6743 7.42964C13.6529 7.38147 13.65 7.34253 13.65 7.32501H14.15H14.65C14.65 7.12802 14.5767 6.90757 14.375 6.75626L14.075 7.15626ZM14.15 7.32501H13.65C13.65 7.30615 13.6533 7.27663 13.667 7.24244C13.6809 7.20767 13.701 7.17938 13.7214 7.15896L14.075 7.51251L14.4285 7.86607C14.5784 7.71617 14.65 7.52369 14.65 7.32501H14.15ZM14.075 7.51251L13.775 7.11251C13.7627 7.12173 13.7454 7.13208 13.7205 7.14202L13.9062 7.60626L14.0919 8.0705C14.192 8.03045 14.2872 7.97829 14.375 7.91251L14.075 7.51251ZM13.9062 7.60626L13.7849 7.12119C12.9887 7.32026 12.2212 7.63166 11.4831 8.05339L11.7312 8.48751L11.9793 8.92163C12.6412 8.54336 13.3237 8.26727 14.0275 8.09133L13.9062 7.60626ZM11.7312 8.48751L11.489 8.05007C10.7503 8.459 10.0936 8.94923 9.5214 9.52146L9.87495 9.87501L10.2285 10.2286C10.7313 9.72579 11.3121 9.29103 11.9734 8.92496L11.7312 8.48751ZM9.87495 9.87501L9.51346 9.52958C8.94818 10.1212 8.45586 10.7778 8.03653 11.4986L8.4687 11.75L8.90088 12.0015C9.28154 11.3472 9.72672 10.7539 10.2364 10.2204L9.87495 9.87501ZM8.4687 11.75L8.03313 11.5045C7.62477 12.229 7.32038 12.9825 7.12162 13.7643L7.6062 13.8875L8.09079 14.0107C8.26702 13.3175 8.53763 12.646 8.90428 11.9955L8.4687 11.75ZM7.6062 13.8875L7.13186 13.7294C7.12993 13.7352 7.12905 13.7359 7.13058 13.7334C7.13221 13.7307 7.13536 13.7262 7.14015 13.7215L7.4937 14.075L7.84726 14.4286C7.95834 14.3175 8.03393 14.1855 8.08054 14.0456L7.6062 13.8875ZM7.4937 14.075L7.0937 13.775C7.12531 13.7329 7.16925 13.6971 7.22032 13.6744C7.26849 13.6529 7.30743 13.65 7.32495 13.65V14.15V14.65C7.52195 14.65 7.74239 14.5768 7.8937 14.375L7.4937 14.075Z" fill="#121317" />
</svg>