<svg width="48" height="48" viewBox="0 0 48 48" fill="none" xmlns="http://www.w3.org/2000/svg">
<path d="M21.2625 37.5C21.0625 37.5 20.875 37.45 20.7 37.35C20.525 37.25 20.4 37.125 20.325 36.975C20.225 36.825 20.1625 36.6625 20.1375 36.4875C20.1125 36.2875 20.15 36.0875 20.25 35.8875L22.9875 30.45C23.0875 30.225 23.225 30.0625 23.4 29.9625C23.6 29.8625 23.8 29.8125 24 29.8125C24.2 29.8125 24.3875 29.8625 24.5625 29.9625C24.7625 30.0625 24.9125 30.225 25.0125 30.45L27.75 35.8875C27.85 36.0875 27.8875 36.2875 27.8625 36.4875C27.8375 36.6625 27.775 36.825 27.675 36.975C27.6 37.125 27.475 37.25 27.3 37.35C27.125 37.45 26.9375 37.5 26.7375 37.5H21.2625ZM24 26.175C23.4 26.175 22.8875 25.9625 22.4625 25.5375C22.0375 25.1125 21.825 24.6 21.825 24C21.825 23.4 22.0375 22.8875 22.4625 22.4625C22.8875 22.0375 23.4 21.825 24 21.825C24.6 21.825 25.1125 22.0375 25.5375 22.4625C25.9625 22.8875 26.175 23.4 26.175 24C26.175 24.6 25.9625 25.1125 25.5375 25.5375C25.1125 25.9625 24.6 26.175 24 26.175ZM18.975 30C18.7 30 18.4625 29.9125 18.2625 29.7375C18.0875 29.5375 18 29.2875 18 28.9875C18 28.7125 18.0875 28.475 18.2625 28.275C18.4625 28.075 18.7125 27.975 19.0125 27.975C19.2875 27.975 19.525 28.075 19.725 28.275C19.925 28.475 20.025 28.725 20.025 29.025C20.025 29.3 19.925 29.5375 19.725 29.7375C19.525 29.9125 19.275 30 18.975 30ZM16.9125 25.0125C16.6375 25.0125 16.4 24.9125 16.2 24.7125C16 24.5125 15.9 24.275 15.9 24C15.9 23.725 16 23.4875 16.2 23.2875C16.4 23.0875 16.6375 22.9875 16.9125 22.9875C17.1875 22.9875 17.425 23.0875 17.625 23.2875C17.825 23.4875 17.925 23.725 17.925 24C17.925 24.275 17.825 24.5125 17.625 24.7125C17.425 24.9125 17.1875 25.0125 16.9125 25.0125ZM18.975 20.025C18.7 20.025 18.4625 19.925 18.2625 19.725C18.0875 19.525 18 19.275 18 18.975C18 18.7 18.0875 18.475 18.2625 18.3C18.4625 18.1 18.7125 18 19.0125 18C19.2875 18 19.525 18.1 19.725 18.3C19.925 18.475 20.025 18.7125 20.025 19.0125C20.025 19.2875 19.925 19.525 19.725 19.725C19.525 19.925 19.275 20.025 18.975 20.025ZM24 17.925C23.725 17.925 23.4875 17.825 23.2875 17.625C23.0875 17.425 22.9875 17.1875 22.9875 16.9125C22.9875 16.6375 23.0875 16.4 23.2875 16.2C23.4875 16 23.725 15.9 24 15.9C24.275 15.9 24.5125 16 24.7125 16.2C24.9125 16.4 25.0125 16.6375 25.0125 16.9125C25.0125 17.1875 24.9125 17.425 24.7125 17.625C24.5125 17.825 24.275 17.925 24 17.925ZM28.9875 20.025C28.7125 20.025 28.475 19.925 28.275 19.725C28.075 19.525 27.975 19.275 27.975 18.975C27.975 18.7 28.075 18.475 28.275 18.3C28.475 18.1 28.725 18 29.025 18C29.3 18 29.525 18.1 29.7 18.3C29.9 18.475 30 18.7125 30 19.0125C30 19.2875 29.9 19.525 29.7 19.725C29.525 19.925 29.2875 20.025 28.9875 20.025ZM31.0875 25.0125C30.8125 25.0125 30.575 24.9125 30.375 24.7125C30.175 24.5125 30.075 24.275 30.075 24C30.075 23.725 30.175 23.4875 30.375 23.2875C30.575 23.0875 30.8125 22.9875 31.0875 22.9875C31.3625 22.9875 31.6 23.0875 31.8 23.2875C32 23.4875 32.1 23.725 32.1 24C32.1 24.275 32 24.5125 31.8 24.7125C31.6 24.9125 31.3625 25.0125 31.0875 25.0125ZM28.9875 30C28.7125 30 28.475 29.9125 28.275 29.7375C28.075 29.5375 27.975 29.2875 27.975 28.9875C27.975 28.7125 28.075 28.475 28.275 28.275C28.475 28.075 28.725 27.975 29.025 27.975C29.3 27.975 29.525 28.075 29.7 28.275C29.9 28.475 30 28.725 30 29.025C30 29.3 29.9 29.5375 29.7 29.7375C29.525 29.9125 29.2875 30 28.9875 30ZM16.2 34.7625C15.925 34.7625 15.6875 34.6625 15.4875 34.4625C15.2875 34.2375 15.1875 33.9875 15.1875 33.7125C15.1875 33.4375 15.2875 33.2 15.4875 33C15.6875 32.8 15.925 32.7 16.2 32.7C16.475 32.7 16.7125 32.8 16.9125 33C17.1125 33.2 17.2125 33.4375 17.2125 33.7125C17.2125 34.0125 17.1125 34.2625 16.9125 34.4625C16.7125 34.6625 16.475 34.7625 16.2 34.7625ZM12.7875 30.4125C12.4875 30.4125 12.2375 30.325 12.0375 30.15C11.8625 29.95 11.775 29.7 11.775 29.4C11.775 29.125 11.8625 28.8875 12.0375 28.6875C12.2375 28.4875 12.4875 28.3875 12.7875 28.3875C13.0625 28.3875 13.3 28.4875 13.5 28.6875C13.7 28.8875 13.8 29.125 13.8 29.4C13.8 29.7 13.7 29.95 13.5 30.15C13.3 30.325 13.0625 30.4125 12.7875 30.4125ZM11.55 25.0125C11.275 25.0125 11.0375 24.9125 10.8375 24.7125C10.6375 24.5125 10.5375 24.275 10.5375 24C10.5375 23.725 10.6375 23.4875 10.8375 23.2875C11.0375 23.0875 11.275 22.9875 11.55 22.9875C11.825 22.9875 12.0625 23.0875 12.2625 23.2875C12.4625 23.4875 12.5625 23.725 12.5625 24C12.5625 24.275 12.4625 24.5125 12.2625 24.7125C12.0625 24.9125 11.825 25.0125 11.55 25.0125ZM12.7875 19.575C12.5125 19.575 12.275 19.475 12.075 19.275C11.875 19.075 11.775 18.8375 11.775 18.5625C11.775 18.2875 11.875 18.05 12.075 17.85C12.275 17.65 12.5125 17.55 12.7875 17.55C13.0625 17.55 13.3 17.65 13.5 17.85C13.7 18.05 13.8 18.2875 13.8 18.5625C13.8 18.8375 13.7 19.075 13.5 19.275C13.3 19.475 13.0625 19.575 12.7875 19.575ZM16.2375 15.2625C15.9625 15.2625 15.725 15.1625 15.525 14.9625C15.325 14.7625 15.225 14.5125 15.225 14.2125C15.225 13.9375 15.325 13.7125 15.525 13.5375C15.725 13.3375 15.9625 13.2375 16.2375 13.2375C16.5375 13.2375 16.775 13.3375 16.95 13.5375C17.15 13.7125 17.25 13.95 17.25 14.25C17.25 14.525 17.15 14.7625 16.95 14.9625C16.75 15.1625 16.5125 15.2625 16.2375 15.2625ZM21.1875 12.825C20.9125 12.825 20.675 12.725 20.475 12.525C20.3 12.325 20.2125 12.0875 20.2125 11.8125C20.2125 11.5375 20.3125 11.3 20.5125 11.1C20.7125 10.9 20.95 10.8 21.225 10.8C21.5 10.8 21.725 10.9 21.9 11.1C22.1 11.3 22.2 11.5375 22.2 11.8125C22.2 12.0875 22.1 12.325 21.9 12.525C21.725 12.725 21.4875 12.825 21.1875 12.825ZM26.7375 12.825C26.4625 12.825 26.225 12.725 26.025 12.525C25.85 12.325 25.7625 12.0875 25.7625 11.8125C25.7625 11.5375 25.85 11.3 26.025 11.1C26.225 10.9 26.475 10.8 26.775 10.8C27.05 10.8 27.2875 10.9 27.4875 11.1C27.6875 11.3 27.7875 11.5375 27.7875 11.8125C27.7875 12.0875 27.6875 12.325 27.4875 12.525C27.2875 12.725 27.0375 12.825 26.7375 12.825ZM31.8 15.2625C31.525 15.2625 31.2875 15.175 31.0875 15C30.8875 14.8 30.7875 14.55 30.7875 14.25C30.7875 13.975 30.8875 13.7375 31.0875 13.5375C31.2875 13.3375 31.525 13.2375 31.8 13.2375C32.1 13.2375 32.3375 13.3375 32.5125 13.5375C32.7125 13.7375 32.8125 13.975 32.8125 14.25C32.8125 14.55 32.7125 14.8 32.5125 15C32.3375 15.175 32.1 15.2625 31.8 15.2625ZM35.25 19.575C34.975 19.575 34.7375 19.475 34.5375 19.275C34.3375 19.075 34.2375 18.8375 34.2375 18.5625C34.2375 18.2875 34.3375 18.0625 34.5375 17.8875C34.7375 17.6875 34.975 17.5875 35.25 17.5875C35.525 17.5875 35.7625 17.6875 35.9625 17.8875C36.1625 18.0625 36.2625 18.3 36.2625 18.6C36.2625 18.875 36.1625 19.1125 35.9625 19.3125C35.7625 19.4875 35.525 19.575 35.25 19.575ZM36.4875 25.0125C36.2125 25.0125 35.975 24.9125 35.775 24.7125C35.575 24.5125 35.475 24.275 35.475 24C35.475 23.725 35.575 23.4875 35.775 23.2875C35.975 23.0875 36.2125 22.9875 36.4875 22.9875C36.7625 22.9875 37 23.0875 37.2 23.2875C37.4 23.4875 37.5 23.725 37.5 24C37.5 24.275 37.4 24.5125 37.2 24.7125C37 24.9125 36.7625 25.0125 36.4875 25.0125ZM35.25 30.4125C34.975 30.4125 34.7375 30.325 34.5375 30.15C34.3375 29.95 34.2375 29.7 34.2375 29.4C34.2375 29.125 34.3375 28.9 34.5375 28.725C34.7375 28.525 34.975 28.425 35.25 28.425C35.525 28.425 35.7625 28.525 35.9625 28.725C36.1625 28.925 36.2625 29.1625 36.2625 29.4375C36.2625 29.7125 36.1625 29.95 35.9625 30.15C35.7625 30.325 35.525 30.4125 35.25 30.4125ZM31.8 34.7625C31.5 34.7625 31.25 34.675 31.05 34.5C30.875 34.3 30.7875 34.05 30.7875 33.75C30.7875 33.475 30.8875 33.2375 31.0875 33.0375C31.2875 32.8375 31.525 32.7375 31.8 32.7375C32.075 32.7375 32.3125 32.8375 32.5125 33.0375C32.7125 33.2375 32.8125 33.4875 32.8125 33.7875C32.8125 34.0625 32.7125 34.3 32.5125 34.5C32.3125 34.675 32.075 34.7625 31.8 34.7625Z" fill="url(#paint0_linear_30105_557)"/>
<defs>
<linearGradient id="paint0_linear_30105_557" x1="6" y1="42" x2="42" y2="6" gradientUnits="userSpaceOnUse">
<stop stop-color="#3186FF"/>
<stop offset="0.49754" stop-color="#346BF1"/>
<stop offset="1" stop-color="#4FA0FF"/>
</linearGradient>
</defs>
</svg>
