<svg width="48" height="48" viewBox="0 0 48 48" fill="none" xmlns="http://www.w3.org/2000/svg">
<path d="M24 37.5C22.125 37.5 20.3625 37.15 18.7125 36.45C17.0875 35.725 15.6625 34.7625 14.4375 33.5625C13.2125 32.3375 12.25 30.9 11.55 29.25C10.85 27.6 10.5 25.8375 10.5 23.9625C10.5 22.1125 10.85 20.375 11.55 18.75C12.25 17.1 13.2125 15.6625 14.4375 14.4375C15.6625 13.2125 17.0875 12.25 18.7125 11.55C20.3625 10.85 22.125 10.5 24 10.5C25.875 10.5 27.625 10.85 29.25 11.55C30.9 12.25 32.3375 13.2125 33.5625 14.4375C34.7875 15.6625 35.75 17.1 36.45 18.75C37.15 20.375 37.5 22.1125 37.5 23.9625C37.5 25.8375 37.15 27.6 36.45 29.25C35.75 30.9 34.7875 32.3375 33.5625 33.5625C32.3375 34.7625 30.9 35.725 29.25 36.45C27.625 37.15 25.875 37.5 24 37.5ZM24 36.225C24.925 35.1 25.6875 33.975 26.2875 32.85C26.8875 31.7 27.375 30.3875 27.75 28.9125H20.25C20.65 30.4375 21.1375 31.775 21.7125 32.925C22.3125 34.075 23.075 35.175 24 36.225ZM22.275 36.0375C21.525 35.1875 20.85 34.125 20.25 32.85C19.65 31.575 19.2 30.2625 18.9 28.9125H12.8625C13.7625 30.9125 15.0125 32.525 16.6125 33.75C18.2375 34.95 20.125 35.7125 22.275 36.0375ZM25.7625 36C27.8125 35.725 29.6625 34.9625 31.3125 33.7125C32.9625 32.4625 34.2375 30.8625 35.1375 28.9125H29.1375C28.7375 30.2875 28.2375 31.6125 27.6375 32.8875C27.0375 34.1375 26.4125 35.175 25.7625 36ZM12.375 27.6H18.6375C18.5125 26.95 18.425 26.325 18.375 25.725C18.325 25.125 18.3 24.5375 18.3 23.9625C18.3 23.3875 18.325 22.8125 18.375 22.2375C18.425 21.6375 18.5125 21.025 18.6375 20.4H12.375C12.2 20.925 12.0625 21.5 11.9625 22.125C11.8625 22.725 11.8125 23.3375 11.8125 23.9625C11.8125 24.6125 11.8625 25.25 11.9625 25.875C12.0625 26.475 12.2 27.05 12.375 27.6ZM19.95 27.6H28.05C28.175 26.925 28.25 26.3 28.275 25.725C28.325 25.15 28.35 24.5625 28.35 23.9625C28.35 23.3875 28.325 22.825 28.275 22.275C28.25 21.7 28.175 21.075 28.05 20.4H19.95C19.85 21.075 19.775 21.7 19.725 22.275C19.675 22.825 19.65 23.3875 19.65 23.9625C19.65 24.5625 19.675 25.15 19.725 25.725C19.775 26.3 19.85 26.925 19.95 27.6ZM29.3625 27.6H35.625C35.8 27.05 35.9375 26.475 36.0375 25.875C36.1375 25.25 36.1875 24.6125 36.1875 23.9625C36.1875 23.3375 36.1375 22.725 36.0375 22.125C35.9375 21.5 35.8 20.925 35.625 20.4H29.4C29.5 21.1 29.575 21.7375 29.625 22.3125C29.675 22.8875 29.7 23.4375 29.7 23.9625C29.7 24.5375 29.675 25.125 29.625 25.725C29.575 26.3 29.4875 26.925 29.3625 27.6ZM29.1 19.05H35.1375C34.2375 17.05 32.975 15.45 31.35 14.25C29.75 13.025 27.875 12.2625 25.725 11.9625C26.475 12.8875 27.1375 13.975 27.7125 15.225C28.3125 16.45 28.775 17.725 29.1 19.05ZM20.25 19.05H27.75C27.375 17.6 26.875 16.275 26.25 15.075C25.625 13.875 24.875 12.775 24 11.775C23.15 12.725 22.425 13.7875 21.825 14.9625C21.225 16.1125 20.7 17.475 20.25 19.05ZM12.8625 19.05H18.9C19.225 17.725 19.675 16.45 20.25 15.225C20.825 14 21.4875 12.9125 22.2375 11.9625C20.0875 12.2625 18.2125 13.025 16.6125 14.25C15.0125 15.45 13.7625 17.05 12.8625 19.05Z" fill="url(#paint0_linear_6144_4369)"/>
<defs>
<linearGradient id="paint0_linear_6144_4369" x1="6" y1="42" x2="42" y2="6" gradientUnits="userSpaceOnUse">
<stop stop-color="#3186FF"/>
<stop offset="0.49754" stop-color="#346BF1"/>
<stop offset="1" stop-color="#4FA0FF"/>
</linearGradient>
</defs>
</svg>
