<svg width="48" height="48" viewBox="0 0 48 48" fill="none" xmlns="http://www.w3.org/2000/svg">
<path d="M14.625 36C14.3 36 14.025 35.9 13.8 35.7C13.6 35.475 13.5 35.2 13.5 34.875V29.775C13.5 29.15 13.725 28.625 14.175 28.2C14.625 27.75 15.15 27.525 15.75 27.525H32.25C32.85 27.525 33.375 27.75 33.825 28.2C34.275 28.625 34.5 29.15 34.5 29.775V34.875C34.5 35.2 34.3875 35.475 34.1625 35.7C33.9625 35.9 33.7 36 33.375 36H14.625ZM19.95 24.8625C18.15 24.8625 16.625 24.2375 15.375 22.9875C14.125 21.7375 13.5 20.225 13.5 18.45C13.5 16.65 14.125 15.125 15.375 13.875C16.625 12.625 18.15 12 19.95 12H28.05C29.85 12 31.375 12.625 32.625 13.875C33.875 15.125 34.5 16.65 34.5 18.45C34.5 20.225 33.875 21.7375 32.625 22.9875C31.375 24.2375 29.85 24.8625 28.05 24.8625H19.95ZM19.95 19.425C20.225 19.425 20.45 19.3375 20.625 19.1625C20.825 18.9625 20.925 18.7125 20.925 18.4125C20.925 18.1375 20.825 17.9125 20.625 17.7375C20.45 17.5375 20.2125 17.4375 19.9125 17.4375C19.6375 17.4375 19.4 17.5375 19.2 17.7375C19.025 17.9375 18.9375 18.175 18.9375 18.45C18.9375 18.725 19.0375 18.9625 19.2375 19.1625C19.4375 19.3375 19.675 19.425 19.95 19.425ZM28.0875 19.425C28.3625 19.425 28.5875 19.3375 28.7625 19.1625C28.9625 18.9625 29.0625 18.7125 29.0625 18.4125C29.0625 18.1375 28.9625 17.9125 28.7625 17.7375C28.5625 17.5375 28.325 17.4375 28.05 17.4375C27.775 17.4375 27.5375 17.5375 27.3375 17.7375C27.1625 17.9375 27.075 18.175 27.075 18.45C27.075 18.725 27.1625 18.9625 27.3375 19.1625C27.5375 19.3375 27.7875 19.425 28.0875 19.425Z" fill="url(#paint0_linear_30092_523)"/>
<defs>
<linearGradient id="paint0_linear_30092_523" x1="6" y1="42" x2="42" y2="6" gradientUnits="userSpaceOnUse">
<stop stop-color="#3186FF"/>
<stop offset="0.49754" stop-color="#346BF1"/>
<stop offset="1" stop-color="#4FA0FF"/>
</linearGradient>
</defs>
</svg>
