<svg width="48" height="48" viewBox="0 0 48 48" fill="none" xmlns="http://www.w3.org/2000/svg">
<path d="M15 38.4375C15 34.9125 15.725 32.1875 17.175 30.2625C18.625 28.3375 20.5625 26.25 22.9875 24C20.5375 21.75 18.5875 19.6625 17.1375 17.7375C15.6875 15.8125 14.9625 13.0875 14.9625 9.5625V9.1125C14.9625 8.9125 15.025 8.75 15.15 8.625C15.275 8.5 15.4375 8.4375 15.6375 8.4375C15.8375 8.4375 16 8.5 16.125 8.625C16.25 8.75 16.3125 8.9125 16.3125 9.1125V9.5625C16.3125 10.0875 16.325 10.575 16.35 11.025C16.375 11.475 16.425 11.9125 16.5 12.3375H31.4625C31.5375 11.9125 31.5875 11.475 31.6125 11.025C31.6625 10.575 31.6875 10.0875 31.6875 9.5625V9.1125C31.6875 8.9125 31.75 8.75 31.875 8.625C32 8.5 32.15 8.4375 32.325 8.4375C32.525 8.4375 32.6875 8.5 32.8125 8.625C32.9375 8.75 33 8.9125 33 9.1125V9.5625C33 13.0875 32.275 15.8125 30.825 17.7375C29.375 19.6625 27.4375 21.75 25.0125 24C27.4375 26.225 29.375 28.3125 30.825 30.2625C32.275 32.1875 33 34.9125 33 38.4375V38.8875C33 39.0875 32.9375 39.25 32.8125 39.375C32.6875 39.5 32.525 39.5625 32.325 39.5625C32.15 39.5625 32 39.5 31.875 39.375C31.75 39.25 31.6875 39.0875 31.6875 38.8875V38.4375C31.6875 37.9125 31.6625 37.425 31.6125 36.975C31.5875 36.525 31.5375 36.0875 31.4625 35.6625H16.5375C16.4625 36.0875 16.4 36.525 16.35 36.975C16.325 37.425 16.3125 37.9125 16.3125 38.4375V38.8875C16.3125 39.0875 16.25 39.25 16.125 39.375C16 39.5 15.85 39.5625 15.675 39.5625C15.475 39.5625 15.3125 39.5 15.1875 39.375C15.0625 39.25 15 39.0875 15 38.8875V38.4375ZM18.975 18H29.025C29.5 17.35 29.925 16.675 30.3 15.975C30.675 15.275 30.975 14.5125 31.2 13.6875H16.8C17.025 14.5125 17.3125 15.275 17.6625 15.975C18.0375 16.675 18.475 17.35 18.975 18ZM24 23.1C24.75 22.425 25.45 21.7875 26.1 21.1875C26.75 20.5625 27.35 19.9375 27.9 19.3125H20.0625C20.6125 19.9375 21.2125 20.5625 21.8625 21.1875C22.5375 21.8125 23.25 22.45 24 23.1ZM20.1 28.6875H27.9C27.35 28.0625 26.75 27.45 26.1 26.85C25.45 26.225 24.75 25.575 24 24.9C23.25 25.575 22.55 26.225 21.9 26.85C21.25 27.45 20.65 28.0625 20.1 28.6875ZM16.8375 34.3125H31.2C30.95 33.4875 30.65 32.725 30.3 32.025C29.95 31.325 29.525 30.65 29.025 30H18.975C18.475 30.65 18.0375 31.325 17.6625 32.025C17.3125 32.725 17.0375 33.4875 16.8375 34.3125Z" fill="url(#paint0_linear_30093_489)"/>
<defs>
<linearGradient id="paint0_linear_30093_489" x1="6" y1="42" x2="42" y2="6" gradientUnits="userSpaceOnUse">
<stop stop-color="#3186FF"/>
<stop offset="0.49754" stop-color="#346BF1"/>
<stop offset="1" stop-color="#4FA0FF"/>
</linearGradient>
</defs>
</svg>
