<svg width="48" height="48" viewBox="0 0 48 48" fill="none" xmlns="http://www.w3.org/2000/svg">
<path d="M23.625 37.3875L22.9179 38.0946L23.0049 38.1817L23.1105 38.245L23.625 37.3875ZM23.4 37.0125L22.4338 37.2702L22.4416 37.2997L22.4513 37.3287L23.4 37.0125ZM21.6375 32.775L20.7633 33.2606L20.7687 33.2703L20.7743 33.2799L21.6375 32.775ZM18.8625 29.1375L18.1473 29.8364L18.1553 29.8447L18.1636 29.8527L18.8625 29.1375ZM15.225 26.3625L14.7201 27.2257L14.7297 27.2313L14.7394 27.2367L15.225 26.3625ZM10.9875 24.6L10.6713 25.5487L10.7003 25.5584L10.7298 25.5662L10.9875 24.6ZM10.6125 24.375L9.75501 24.8895L9.81835 24.9951L9.90539 25.0821L10.6125 24.375ZM10.6125 23.6625L9.83163 23.0378L9.82187 23.05L9.8125 23.0625L10.6125 23.6625ZM10.95 23.4L10.6963 22.4327L10.6362 22.4485L10.5786 22.4715L10.95 23.4ZM15.225 21.675L15.7176 22.5453L15.7229 22.5423L15.225 21.675ZM18.8625 18.8625L18.1636 18.1473L18.1553 18.1553L18.1473 18.1636L18.8625 18.8625ZM21.6375 15.2625L20.7702 14.7646L20.7672 14.7699L21.6375 15.2625ZM23.4 10.9875L22.4513 10.6713L22.4416 10.7003L22.4338 10.7298L23.4 10.9875ZM23.625 10.65L24.225 11.45L24.2819 11.4074L24.3321 11.3571L23.625 10.65ZM24.375 10.65L23.6679 11.3571L23.7181 11.4074L23.775 11.45L24.375 10.65ZM24.6 10.95L25.5673 10.6963L25.5515 10.6362L25.5285 10.5786L24.6 10.95ZM26.325 15.2625L25.4508 15.7481L25.4562 15.7578L25.4618 15.7674L26.325 15.2625ZM29.1375 18.8625L29.8527 18.1636L29.8447 18.1553L29.8364 18.1473L29.1375 18.8625ZM32.7375 21.675L32.2326 22.5382L32.2422 22.5438L32.2519 22.5492L32.7375 21.675ZM37.0125 23.4L37.3287 22.4513L37.2997 22.4416L37.2702 22.4338L37.0125 23.4ZM37.35 23.6625L36.4925 24.177L36.5558 24.2826L36.6429 24.3696L37.35 23.6625ZM37.35 24.375L36.5691 23.7503L36.5594 23.7625L36.55 23.775L37.35 24.375ZM37.05 24.6L37.3037 25.5673L37.3638 25.5515L37.4214 25.5285L37.05 24.6ZM32.7375 26.3625L33.2301 27.2328L33.2354 27.2298L32.7375 26.3625ZM29.1375 29.1375L29.8364 29.8527L29.8447 29.8447L29.8527 29.8364L29.1375 29.1375ZM26.325 32.775L25.4577 32.2771L25.4547 32.2824L26.325 32.775ZM24.6 37.0125L25.5487 37.3287L25.5584 37.2997L25.5662 37.2702L24.6 37.0125ZM24.3375 37.3875L24.9375 38.1875L24.95 38.1781L24.9622 38.1684L24.3375 37.3875ZM24 37.5V36.5C24.039 36.5 24.0733 36.5061 24.0998 36.514C24.1256 36.5218 24.1389 36.5297 24.1395 36.53L23.625 37.3875L23.1105 38.245C23.3647 38.3975 23.6655 38.5 24 38.5V37.5ZM23.625 37.3875L24.3321 36.6804C24.3417 36.69 24.348 36.6988 24.3512 36.7043C24.3543 36.7093 24.3525 36.7078 24.3487 36.6963L23.4 37.0125L22.4513 37.3287C22.5446 37.6084 22.6957 37.8724 22.9179 38.0946L23.625 37.3875ZM23.4 37.0125L24.3662 36.7548C23.9434 35.1692 23.3215 33.6734 22.5007 32.2701L21.6375 32.775L20.7743 33.2799C21.5035 34.5266 22.0566 35.8558 22.4338 37.2702L23.4 37.0125ZM21.6375 32.775L22.5117 32.2894C21.7149 30.8551 20.7309 29.5652 19.5614 28.4223L18.8625 29.1375L18.1636 29.8527C19.1941 30.8598 20.0601 31.9949 20.7633 33.2606L21.6375 32.775ZM18.8625 29.1375L19.5777 28.4386C18.4348 27.2691 17.1449 26.2851 15.7106 25.4883L15.225 26.3625L14.7394 27.2367C16.0051 27.9399 17.1402 28.8059 18.1473 29.8364L18.8625 29.1375ZM15.225 26.3625L15.7299 25.4993C14.3266 24.6785 12.8308 24.0566 11.2452 23.6338L10.9875 24.6L10.7298 25.5662C12.1442 25.9434 13.4734 26.4965 14.7201 27.2257L15.225 26.3625ZM10.9875 24.6L11.3037 23.6513C11.2922 23.6475 11.2907 23.6457 11.2957 23.6488C11.3012 23.652 11.31 23.6583 11.3196 23.6679L10.6125 24.375L9.90539 25.0821C10.1276 25.3043 10.3916 25.4554 10.6713 25.5487L10.9875 24.6ZM10.6125 24.375L11.47 23.8605C11.4703 23.8611 11.4782 23.8744 11.486 23.9002C11.4939 23.9267 11.5 23.961 11.5 24H10.5H9.5C9.5 24.3345 9.60246 24.6353 9.75501 24.8895L10.6125 24.375ZM10.5 24H11.5C11.5 24.0391 11.4938 24.087 11.4768 24.1381C11.4598 24.1892 11.436 24.2312 11.4125 24.2625L10.6125 23.6625L9.8125 23.0625C9.60768 23.3356 9.5 23.6586 9.5 24H10.5ZM10.6125 23.6625L11.3934 24.2872C11.4003 24.2785 11.3985 24.2826 11.3858 24.2925C11.3725 24.3029 11.3508 24.3167 11.3214 24.3285L10.95 23.4L10.5786 22.4715C10.2653 22.5969 10.0191 22.8034 9.83163 23.0378L10.6125 23.6625ZM10.95 23.4L11.2037 24.3673C12.8092 23.9462 14.3149 23.3393 15.7176 22.5453L15.225 21.675L14.7324 20.8047C13.4851 21.5107 12.1408 22.0538 10.6963 22.4327L10.95 23.4ZM15.225 21.675L15.7229 22.5423C17.1517 21.722 18.4376 20.7281 19.5777 19.5614L18.8625 18.8625L18.1473 18.1636C17.1374 19.1969 15.9983 20.078 14.7271 20.8077L15.225 21.675ZM18.8625 18.8625L19.5614 19.5777C20.728 18.4376 21.7109 17.1628 22.5078 15.7551L21.6375 15.2625L20.7672 14.7699C20.0641 16.0122 19.197 17.1374 18.1636 18.1473L18.8625 18.8625ZM21.6375 15.2625L22.5048 15.7604C23.3229 14.3352 23.9438 12.8294 24.3662 11.2452L23.4 10.9875L22.4338 10.7298C22.0562 12.1456 21.5021 13.4898 20.7702 14.7646L21.6375 15.2625ZM23.4 10.9875L24.3487 11.3037C24.3514 11.2955 24.3261 11.3741 24.225 11.45L23.625 10.65L23.025 9.85C22.7239 10.0759 22.5486 10.3795 22.4513 10.6713L23.4 10.9875ZM23.625 10.65L24.3321 11.3571C24.2913 11.3979 24.2347 11.4382 24.1651 11.466C24.0968 11.4933 24.0377 11.5 24 11.5V10.5V9.5C23.6026 9.5 23.2177 9.6431 22.9179 9.94289L23.625 10.65ZM24 10.5V11.5C23.9623 11.5 23.9032 11.4933 23.8349 11.466C23.7653 11.4382 23.7087 11.3979 23.6679 11.3571L24.375 10.65L25.0821 9.94289C24.7823 9.64309 24.3974 9.5 24 9.5V10.5ZM24.375 10.65L23.775 11.45C23.7492 11.4306 23.7256 11.4071 23.7063 11.3812C23.6872 11.3558 23.6766 11.3342 23.6715 11.3214L24.6 10.95L25.5285 10.5786C25.4158 10.2969 25.233 10.0435 24.975 9.85L24.375 10.65ZM24.6 10.95L23.6327 11.2037C24.0535 12.8079 24.6594 14.3235 25.4508 15.7481L26.325 15.2625L27.1992 14.7769C26.4906 13.5015 25.9465 12.1421 25.5673 10.6963L24.6 10.95ZM26.325 15.2625L25.4618 15.7674C26.282 17.1697 27.2748 18.4404 28.4386 19.5777L29.1375 18.8625L29.8364 18.1473C28.8002 17.1346 27.918 16.0053 27.1882 14.7576L26.325 15.2625ZM29.1375 18.8625L28.4223 19.5614C29.5596 20.7252 30.8303 21.718 32.2326 22.5382L32.7375 21.675L33.2424 20.8118C31.9947 20.082 30.8654 19.1998 29.8527 18.1636L29.1375 18.8625ZM32.7375 21.675L32.2519 22.5492C33.6742 23.3393 35.1758 23.9451 36.7548 24.3662L37.0125 23.4L37.2702 22.4338C35.8492 22.0548 34.5008 21.5107 33.2231 20.8008L32.7375 21.675ZM37.0125 23.4L36.6963 24.3487C36.6754 24.3417 36.6379 24.3255 36.5954 24.2925C36.552 24.2587 36.5171 24.2179 36.4925 24.177L37.35 23.6625L38.2075 23.148C37.9989 22.8004 37.6845 22.5699 37.3287 22.4513L37.0125 23.4ZM37.35 23.6625L36.6429 24.3696C36.6189 24.3456 36.5804 24.2993 36.5487 24.228C36.516 24.1544 36.5 24.0752 36.5 24H37.5H38.5C38.5 23.5741 38.3178 23.2161 38.0571 22.9554L37.35 23.6625ZM37.5 24H36.5C36.5 23.8407 36.5677 23.7521 36.5691 23.7503L37.35 24.375L38.1309 24.9997C38.3323 24.7479 38.5 24.4093 38.5 24H37.5ZM37.35 24.375L36.55 23.775C36.5694 23.7492 36.5929 23.7256 36.6187 23.7063C36.6442 23.6872 36.6658 23.6766 36.6786 23.6715L37.05 24.6L37.4214 25.5285C37.7031 25.4158 37.9565 25.233 38.15 24.975L37.35 24.375ZM37.05 24.6L36.7963 23.6327C35.1869 24.0548 33.6672 24.6757 32.2396 25.4952L32.7375 26.3625L33.2354 27.2298C34.5078 26.4993 35.8631 25.9452 37.3037 25.5673L37.05 24.6ZM32.7375 26.3625L32.2449 25.4922C30.8372 26.2891 29.5624 27.272 28.4223 28.4386L29.1375 29.1375L29.8527 29.8364C30.8626 28.803 31.9878 27.9359 33.2301 27.2328L32.7375 26.3625ZM29.1375 29.1375L28.4386 28.4223C27.2719 29.5624 26.278 30.8483 25.4577 32.2771L26.325 32.775L27.1923 33.2729C27.922 32.0017 28.8031 30.8626 29.8364 29.8527L29.1375 29.1375ZM26.325 32.775L25.4547 32.2824C24.6621 33.6828 24.0552 35.1744 23.6338 36.7548L24.6 37.0125L25.5662 37.2702C25.9448 35.8506 26.4879 34.5172 27.1953 33.2676L26.325 32.775ZM24.6 37.0125L23.6513 36.6963C23.6557 36.6831 23.6641 36.6647 23.6776 36.6453C23.6912 36.626 23.7046 36.6132 23.7128 36.6066L24.3375 37.3875L24.9622 38.1684C25.2357 37.9495 25.4369 37.664 25.5487 37.3287L24.6 37.0125ZM24.3375 37.3875L23.7375 36.5875C23.7688 36.564 23.8108 36.5402 23.8619 36.5232C23.913 36.5062 23.9609 36.5 24 36.5V37.5V38.5C24.3414 38.5 24.6644 38.3923 24.9375 38.1875L24.3375 37.3875Z" fill="url(#paint0_linear_30092_493)"/>
<defs>
<linearGradient id="paint0_linear_30092_493" x1="6" y1="42" x2="42" y2="6" gradientUnits="userSpaceOnUse">
<stop stop-color="#3186FF"/>
<stop offset="0.49754" stop-color="#346BF1"/>
<stop offset="1" stop-color="#4FA0FF"/>
</linearGradient>
</defs>
</svg>
