<svg width="48" height="48" viewBox="0 0 48 48" fill="none" xmlns="http://www.w3.org/2000/svg">
<path d="M24 28.425C22.775 28.425 21.725 28 20.85 27.15C20 26.275 19.575 25.225 19.575 24C19.575 22.775 20 21.7375 20.85 20.8875C21.725 20.0125 22.775 19.575 24 19.575C25.225 19.575 26.2625 20.0125 27.1125 20.8875C27.9875 21.7375 28.425 22.775 28.425 24C28.425 25.225 27.9875 26.275 27.1125 27.15C26.2625 28 25.225 28.425 24 28.425ZM24 27.075C24.85 27.075 25.575 26.775 26.175 26.175C26.775 25.575 27.075 24.85 27.075 24C27.075 23.15 26.775 22.425 26.175 21.825C25.575 21.225 24.85 20.925 24 20.925C23.15 20.925 22.425 21.225 21.825 21.825C21.225 22.425 20.925 23.15 20.925 24C20.925 24.85 21.225 25.575 21.825 26.175C22.425 26.775 23.15 27.075 24 27.075ZM24 34.5375C20.475 34.5375 17.8 34.4375 15.975 34.2375C14.15 34.0375 12.55 33.75 11.175 33.375C10.95 33.325 10.75 33.225 10.575 33.075C10.4 32.9 10.3125 32.7 10.3125 32.475C10.3125 32.275 10.4 32.125 10.575 32.025C10.75 31.925 10.9375 31.9125 11.1375 31.9875C12.4125 32.3375 13.675 32.6 14.925 32.775C16.175 32.925 17.4125 33.0125 18.6375 33.0375C17.1875 32.2625 15.9625 31.05 14.9625 29.4C13.9625 27.725 13.4625 25.925 13.4625 24C13.4625 21.625 13.575 19.3375 13.8 17.1375C14.025 14.9125 14.3 12.9125 14.625 11.1375C14.7 10.9125 14.8 10.725 14.925 10.575C15.075 10.4 15.275 10.3125 15.525 10.3125C15.7 10.3125 15.8375 10.4 15.9375 10.575C16.0625 10.75 16.1 10.9375 16.05 11.1375C15.75 12.5625 15.525 13.8625 15.375 15.0375C15.225 16.2125 15.1 17.4125 15 18.6375C15.825 17.1125 17.05 15.875 18.675 14.925C20.3 13.95 22.075 13.4625 24 13.4625C26.95 13.4625 29.4125 13.5625 31.3875 13.7625C33.3875 13.9625 35.1875 14.25 36.7875 14.625C37.0375 14.675 37.25 14.775 37.425 14.925C37.6 15.075 37.6875 15.275 37.6875 15.525C37.6875 15.7 37.6 15.85 37.425 15.975C37.25 16.075 37.0625 16.0875 36.8625 16.0125C35.5875 15.7375 34.3 15.5125 33 15.3375C31.7 15.1375 30.5 15.0125 29.4 14.9625C31.025 15.9375 32.2875 17.25 33.1875 18.9C34.0875 20.525 34.5375 22.225 34.5375 24C34.5375 27.2 34.425 29.7875 34.2 31.7625C33.975 33.7125 33.7 35.4 33.375 36.825C33.3 37.05 33.1875 37.25 33.0375 37.425C32.8875 37.6 32.7 37.6875 32.475 37.6875C32.275 37.6875 32.125 37.6125 32.025 37.4625C31.925 37.2875 31.9 37.1 31.95 36.9C32.25 35.65 32.4875 34.4 32.6625 33.15C32.8375 31.875 32.9625 30.6375 33.0375 29.4375C32.1125 30.9875 30.825 32.225 29.175 33.15C27.55 34.075 25.825 34.5375 24 34.5375ZM24 33.1875C26.55 33.1875 28.7125 32.3 30.4875 30.525C32.2875 28.725 33.1875 26.55 33.1875 24C33.1875 21.45 32.2875 19.2875 30.4875 17.5125C28.7125 15.7125 26.55 14.8125 24 14.8125C21.45 14.8125 19.275 15.7125 17.475 17.5125C15.7 19.2875 14.8125 21.45 14.8125 24C14.8125 26.55 15.7 28.725 17.475 30.525C19.275 32.3 21.45 33.1875 24 33.1875Z" fill="url(#paint0_linear_30093_499)"/>
<defs>
<linearGradient id="paint0_linear_30093_499" x1="6" y1="42" x2="42" y2="6" gradientUnits="userSpaceOnUse">
<stop stop-color="#3186FF"/>
<stop offset="0.49754" stop-color="#346BF1"/>
<stop offset="1" stop-color="#4FA0FF"/>
</linearGradient>
</defs>
</svg>
