<svg width="48" height="48" viewBox="0 0 48 48" fill="none" xmlns="http://www.w3.org/2000/svg">
<path d="M23.9625 36.525C21.5875 36.525 19.4125 35.9125 17.4375 34.6875C15.4625 33.4375 13.925 31.7625 12.825 29.6625C12.25 29.4875 11.725 29.3 11.25 29.1C10.775 28.9 10.275 28.6875 9.75 28.4625C9.5 28.3375 9.3125 28.1625 9.1875 27.9375C9.0625 27.6875 9 27.425 9 27.15V20.85C9 20.575 9.0625 20.325 9.1875 20.1C9.3125 19.85 9.5 19.6625 9.75 19.5375C10.275 19.3125 10.775 19.1 11.25 18.9C11.725 18.7 12.25 18.5125 12.825 18.3375C13.925 16.2375 15.4625 14.575 17.4375 13.35C19.4125 12.1 21.5875 11.475 23.9625 11.475C26.3375 11.475 28.5125 12.1 30.4875 13.35C32.4625 14.575 34.0125 16.2375 35.1375 18.3375C35.6875 18.5125 36.2 18.7 36.675 18.9C37.15 19.1 37.65 19.3125 38.175 19.5375C38.45 19.6875 38.65 19.8875 38.775 20.1375C38.925 20.3625 39 20.6125 39 20.8875V27.15C39 27.425 38.925 27.6875 38.775 27.9375C38.65 28.1625 38.45 28.3375 38.175 28.4625C37.65 28.6875 37.15 28.9 36.675 29.1C36.2 29.3 35.6875 29.4875 35.1375 29.6625C34.0125 31.7625 32.4625 33.4375 30.4875 34.6875C28.5125 35.9125 26.3375 36.525 23.9625 36.525ZM23.9625 35.175C25.8875 35.175 27.6375 34.7375 29.2125 33.8625C30.7875 32.9875 32.1375 31.7625 33.2625 30.1875C31.8125 30.5875 30.3 30.9 28.725 31.125C27.15 31.35 25.5625 31.4625 23.9625 31.4625C22.3875 31.4625 20.8 31.35 19.2 31.125C17.625 30.9 16.125 30.5875 14.7 30.1875C15.825 31.7625 17.175 32.9875 18.75 33.8625C20.35 34.7375 22.0875 35.175 23.9625 35.175ZM23.9625 12.7875C22.0875 12.7875 20.35 13.2375 18.75 14.1375C17.175 15.0125 15.825 16.225 14.7 17.775C16.125 17.375 17.625 17.0625 19.2 16.8375C20.8 16.6125 22.3875 16.5 23.9625 16.5C25.5625 16.5 27.15 16.6125 28.725 16.8375C30.3 17.0625 31.8125 17.375 33.2625 17.775C32.1375 16.225 30.7875 15.0125 29.2125 14.1375C27.6375 13.2375 25.8875 12.7875 23.9625 12.7875ZM24 30.15C25.35 30.15 26.675 30.075 27.975 29.925C29.3 29.775 30.6125 29.525 31.9125 29.175L28.575 24.8625L25.0125 29.4L19.65 22.95L14.7 28.875C16.225 29.325 17.7625 29.65 19.3125 29.85C20.8625 30.05 22.425 30.15 24 30.15Z" fill="url(#paint0_linear_30093_497)"/>
<defs>
<linearGradient id="paint0_linear_30093_497" x1="6" y1="42" x2="42" y2="6" gradientUnits="userSpaceOnUse">
<stop stop-color="#3186FF"/>
<stop offset="0.49754" stop-color="#346BF1"/>
<stop offset="1" stop-color="#4FA0FF"/>
</linearGradient>
</defs>
</svg>
