<svg width="48" height="48" viewBox="0 0 48 48" fill="none" xmlns="http://www.w3.org/2000/svg">
<path d="M10.5375 24L15.4875 28.9125C15.6125 29.0375 15.675 29.2 15.675 29.4C15.675 29.575 15.6 29.725 15.45 29.85C15.325 29.975 15.175 30.0375 15 30.0375C14.825 30.0375 14.6625 29.975 14.5125 29.85L9.4875 24.7875C9.2625 24.5625 9.15 24.3 9.15 24C9.15 23.7 9.2625 23.4375 9.4875 23.2125L14.5125 18.15C14.6625 18.025 14.825 17.9625 15 17.9625C15.175 17.9625 15.325 18.025 15.45 18.15C15.6 18.275 15.675 18.4375 15.675 18.6375C15.675 18.8125 15.6125 18.9625 15.4875 19.0875L10.5375 24ZM20.5125 35.2125C20.3375 35.1375 20.2 35.025 20.1 34.875C20.025 34.7 20.0125 34.525 20.0625 34.35L26.7 13.2375C26.75 13.0625 26.85 12.9375 27 12.8625C27.15 12.7625 27.3125 12.75 27.4875 12.825C27.6625 12.875 27.8 12.975 27.9 13.125C28 13.275 28.0125 13.4375 27.9375 13.6125L21.3375 34.7625C21.2625 34.9375 21.15 35.075 21 35.175C20.85 35.25 20.6875 35.2625 20.5125 35.2125ZM37.4625 24L32.5125 19.0875C32.3875 18.9625 32.325 18.8125 32.325 18.6375C32.325 18.4375 32.3875 18.275 32.5125 18.15C32.6625 18.025 32.825 17.9625 33 17.9625C33.175 17.9625 33.3375 18.025 33.4875 18.15L38.5125 23.2125C38.7375 23.4375 38.85 23.7 38.85 24C38.85 24.3 38.7375 24.5625 38.5125 24.7875L33.4875 29.85C33.3375 29.975 33.175 30.0375 33 30.0375C32.825 30.0375 32.6625 29.975 32.5125 29.85C32.3875 29.725 32.325 29.575 32.325 29.4C32.325 29.2 32.3875 29.0375 32.5125 28.9125L37.4625 24Z" fill="url(#paint0_linear_28871_21806)"/>
<defs>
<linearGradient id="paint0_linear_28871_21806" x1="6" y1="42" x2="42" y2="6" gradientUnits="userSpaceOnUse">
<stop stop-color="#3186FF"/>
<stop offset="0.49754" stop-color="#346BF1"/>
<stop offset="1" stop-color="#4FA0FF"/>
</linearGradient>
</defs>
</svg>
