<svg width="48" height="48" viewBox="0 0 48 48" fill="none" xmlns="http://www.w3.org/2000/svg">
<path d="M24 26.8125C24.8 26.8125 25.4625 26.55 25.9875 26.025C26.5375 25.475 26.8125 24.8 26.8125 24C26.8125 23.2 26.5375 22.5375 25.9875 22.0125C25.4625 21.4625 24.8 21.1875 24 21.1875C23.2 21.1875 22.525 21.4625 21.975 22.0125C21.45 22.5375 21.1875 23.2 21.1875 24C21.1875 24.8 21.45 25.475 21.975 26.025C22.525 26.55 23.2 26.8125 24 26.8125ZM24 37.5C22.125 37.5 20.3625 37.15 18.7125 36.45C17.0875 35.725 15.6625 34.7625 14.4375 33.5625C13.2375 32.3375 12.275 30.9125 11.55 29.2875C10.85 27.6375 10.5 25.875 10.5 24C10.5 22.125 10.85 20.375 11.55 18.75C12.275 17.1 13.2375 15.675 14.4375 14.475C15.6625 13.25 17.0875 12.2875 18.7125 11.5875C20.3625 10.8625 22.125 10.5 24 10.5C25.875 10.5 27.625 10.8625 29.25 11.5875C30.9 12.2875 32.325 13.25 33.525 14.475C34.75 15.675 35.7125 17.1 36.4125 18.75C37.1375 20.375 37.5 22.125 37.5 24C37.5 25.875 37.1375 27.6375 36.4125 29.2875C35.7125 30.9125 34.75 32.3375 33.525 33.5625C32.325 34.7625 30.9 35.725 29.25 36.45C27.625 37.15 25.875 37.5 24 37.5Z" fill="url(#paint0_linear_30105_561)"/>
<defs>
<linearGradient id="paint0_linear_30105_561" x1="6" y1="42" x2="42" y2="6" gradientUnits="userSpaceOnUse">
<stop stop-color="#3186FF"/>
<stop offset="0.49754" stop-color="#346BF1"/>
<stop offset="1" stop-color="#4FA0FF"/>
</linearGradient>
</defs>
</svg>
